<mxfile host="app.diagrams.net" modified="2022-12-03T16:27:59.809Z" agent="5.0 (Windows NT 10.0; Win64; x64) AppleWebKit/537.36 (KHTML, like Gecko) Chrome/108.0.0.0 Safari/537.36" etag="c_UvzMxoPVaQo4FB7kRb" version="20.5.3" type="github">
  <diagram id="DBASQBewErZOWvEtRKqG" name="第 1 页">
    <mxGraphModel dx="1209" dy="674" grid="1" gridSize="10" guides="1" tooltips="1" connect="1" arrows="1" fold="1" page="1" pageScale="1" pageWidth="827" pageHeight="1169" math="0" shadow="0">
      <root>
        <mxCell id="0" />
        <mxCell id="1" parent="0" />
        <mxCell id="gdYoQe0Ufm9aAyCDbhUH-1" value="" style="whiteSpace=wrap;html=1;aspect=fixed;" vertex="1" parent="1">
          <mxGeometry x="190" y="40" width="350" height="350" as="geometry" />
        </mxCell>
        <mxCell id="gdYoQe0Ufm9aAyCDbhUH-2" value="" style="whiteSpace=wrap;html=1;aspect=fixed;fontFamily=Times New Roman;fontStyle=1" vertex="1" parent="1">
          <mxGeometry x="240" y="110" width="232.5" height="232.5" as="geometry" />
        </mxCell>
        <mxCell id="gdYoQe0Ufm9aAyCDbhUH-4" value="&lt;b&gt;&lt;font style=&quot;font-size: 18px;&quot;&gt;minikube&lt;/font&gt;&lt;/b&gt;" style="text;html=1;resizable=0;autosize=1;align=center;verticalAlign=middle;points=[];fillColor=none;strokeColor=none;rounded=0;fontFamily=Times New Roman;" vertex="1" parent="1">
          <mxGeometry x="285" y="345" width="100" height="40" as="geometry" />
        </mxCell>
        <mxCell id="gdYoQe0Ufm9aAyCDbhUH-10" style="edgeStyle=orthogonalEdgeStyle;rounded=0;orthogonalLoop=1;jettySize=auto;html=1;exitX=1;exitY=0;exitDx=0;exitDy=0;entryX=0;entryY=0.5;entryDx=0;entryDy=0;fontFamily=Times New Roman;fontSize=18;" edge="1" parent="1" source="gdYoQe0Ufm9aAyCDbhUH-6" target="gdYoQe0Ufm9aAyCDbhUH-9">
          <mxGeometry relative="1" as="geometry" />
        </mxCell>
        <mxCell id="gdYoQe0Ufm9aAyCDbhUH-6" value="" style="whiteSpace=wrap;html=1;aspect=fixed;fontFamily=Times New Roman;fontSize=18;" vertex="1" parent="1">
          <mxGeometry x="240" y="180" width="80" height="80" as="geometry" />
        </mxCell>
        <mxCell id="gdYoQe0Ufm9aAyCDbhUH-7" value="Node" style="text;html=1;resizable=0;autosize=1;align=center;verticalAlign=middle;points=[];fillColor=none;strokeColor=none;rounded=0;fontFamily=Times New Roman;fontSize=18;" vertex="1" parent="1">
          <mxGeometry x="320" y="260" width="60" height="40" as="geometry" />
        </mxCell>
        <mxCell id="gdYoQe0Ufm9aAyCDbhUH-8" value="pod" style="text;html=1;resizable=0;autosize=1;align=center;verticalAlign=middle;points=[];fillColor=none;strokeColor=none;rounded=0;fontFamily=Times New Roman;fontSize=18;" vertex="1" parent="1">
          <mxGeometry x="255" y="200" width="50" height="40" as="geometry" />
        </mxCell>
        <mxCell id="gdYoQe0Ufm9aAyCDbhUH-12" style="edgeStyle=orthogonalEdgeStyle;rounded=0;orthogonalLoop=1;jettySize=auto;html=1;exitX=1;exitY=1;exitDx=0;exitDy=0;entryX=-0.007;entryY=0.547;entryDx=0;entryDy=0;entryPerimeter=0;fontFamily=Times New Roman;fontSize=18;" edge="1" parent="1" source="gdYoQe0Ufm9aAyCDbhUH-9" target="gdYoQe0Ufm9aAyCDbhUH-11">
          <mxGeometry relative="1" as="geometry" />
        </mxCell>
        <mxCell id="gdYoQe0Ufm9aAyCDbhUH-9" value="service" style="ellipse;whiteSpace=wrap;html=1;aspect=fixed;fontFamily=Times New Roman;fontSize=18;" vertex="1" parent="1">
          <mxGeometry x="380" y="120" width="80" height="80" as="geometry" />
        </mxCell>
        <mxCell id="gdYoQe0Ufm9aAyCDbhUH-11" value="localhost" style="whiteSpace=wrap;html=1;aspect=fixed;fontFamily=Times New Roman;fontSize=18;" vertex="1" parent="1">
          <mxGeometry x="590" y="70" width="150" height="150" as="geometry" />
        </mxCell>
      </root>
    </mxGraphModel>
  </diagram>
</mxfile>
